<svg id="visual" viewBox="0 0 1920 1080" width="1920" height="1080" xmlns="http://www.w3.org/2000/svg" xmlns:xlink="http://www.w3.org/1999/xlink" version="1.1"><rect x="0" y="0" width="1920" height="1080" fill="#242424"></rect><defs><linearGradient id="grad1_0" x1="43.8%" y1="0%" x2="100%" y2="100%"><stop offset="14.444444444444446%" stop-color="#242424" stop-opacity="1"></stop><stop offset="85.55555555555554%" stop-color="#242424" stop-opacity="1"></stop></linearGradient></defs><defs><linearGradient id="grad2_0" x1="0%" y1="0%" x2="56.3%" y2="100%"><stop offset="14.444444444444446%" stop-color="#242424" stop-opacity="1"></stop><stop offset="85.55555555555554%" stop-color="#242424" stop-opacity="1"></stop></linearGradient></defs><g transform="translate(1920, 0)"><path d="M0 972C-105.7 900.9 -211.4 829.9 -326 787.1C-440.7 744.4 -564.3 730.1 -666.8 666.8C-769.3 603.5 -850.7 491.3 -898 372C-945.4 252.7 -958.7 126.3 -972 0L0 0Z" fill="#FBAE3C"></path></g><g transform="translate(0, 1080)"><path d="M0 -972C98.2 -892 196.4 -812 322.2 -777.9C448 -743.8 601.4 -755.6 687.3 -687.3C773.2 -619.1 791.6 -470.8 827.8 -342.9C864 -215 918 -107.5 972 0L0 0Z" fill="#FBAE3C"></path></g></svg>